<svg xmlns="http://www.w3.org/2000/svg" width="12.326" height="12.326" viewBox="0 0 12.326 12.326">
  <path id="Icon_awesome-info-circle" data-name="Icon awesome-info-circle" d="M6.6.438A6.163,6.163,0,1,0,12.764,6.6,6.164,6.164,0,0,0,6.6.438Zm0,2.734A1.044,1.044,0,1,1,5.557,4.215,1.044,1.044,0,0,1,6.6,3.171ZM7.992,9.483a.3.3,0,0,1-.3.3H5.507a.3.3,0,0,1-.3-.3v-.6a.3.3,0,0,1,.3-.3h.3V7h-.3a.3.3,0,0,1-.3-.3V6.1a.3.3,0,0,1,.3-.3H7.1a.3.3,0,0,1,.3.3V8.589h.3a.3.3,0,0,1,.3.3Z" transform="translate(-0.438 -0.438)" fill="#fff"/>
</svg>
