<svg xmlns="http://www.w3.org/2000/svg" width="25.389" height="18.526" viewBox="0 0 25.389 18.526">
  <g id="Group_8482" data-name="Group 8482" transform="translate(0 0)">
    <path id="Path_2858" data-name="Path 2858" d="M119.229,751.956l-.111-.022c-.286-.058-7.039-1.516-10.807-10.1a21.249,21.249,0,0,1-1.787-7.619.77.77,0,0,1,.926-.765,2.156,2.156,0,0,1,.21.055,8.756,8.756,0,0,1,1.7.852l.5.311a47.618,47.618,0,0,1,5.368,4.114l.894.8a11.106,11.106,0,0,1,3.065-.555,11.375,11.375,0,0,1,3.125.555q.445-.408.89-.8c3.124-2.746,6.546-5.09,7.789-5.338a.759.759,0,0,1,.5.07l.261.22a.776.776,0,0,1,.156.481l0,.165a24.946,24.946,0,0,1-1.673,7.172,16.872,16.872,0,0,1-10.9,10.376Zm-11.662-17.392a20.626,20.626,0,0,0,1.687,6.853c3.286,7.491,9.084,9.255,9.959,9.482a16.21,16.21,0,0,0,10.065-9.718,24.376,24.376,0,0,0,1.591-6.616,33.726,33.726,0,0,0-6.985,4.993c-.368.324-.739.657-1.107,1l-.261.244-.32-.16a8.779,8.779,0,0,0-3.006-.587,8.618,8.618,0,0,0-2.947.589l-.317.154-1.341-1.216a46.738,46.738,0,0,0-5.277-4.049l-.4-.248-.08-.049A9.857,9.857,0,0,0,107.567,734.564Zm-.32-.108h0Zm23.952,0h0Zm.093-.461-.072.094Z" transform="translate(-106.524 -733.43)" fill="#fff"/>
    <path id="Path_2859" data-name="Path 2859" d="M127.7,749.757c.016-.023,2.067-.707,2.067-.707a.256.256,0,0,1,.314.356l-1.008,2.017a.129.129,0,0,1-.039.043,1.152,1.152,0,1,1-1.335-1.709Z" transform="translate(-112.927 -738.673)" fill="#fff"/>
    <path id="Path_2860" data-name="Path 2860" d="M124.67,755.307a.653.653,0,1,1-.8.636A.73.73,0,0,1,124.67,755.307Z" transform="translate(-111.973 -740.643)" fill="#fff"/>
    <path id="Path_2861" data-name="Path 2861" d="M118,749.12a.257.257,0,0,1,.281-.069s2.048.682,2.064.706a1.153,1.153,0,1,1-1.337,1.708c-.016-.01-1.047-2.06-1.047-2.06A.259.259,0,0,1,118,749.12Z" transform="translate(-110.109 -738.673)" fill="#fff"/>
  </g>
</svg>
